<svg width="102" height="103" viewBox="0 0 102 103" fill="none" xmlns="http://www.w3.org/2000/svg">
<path d="M6.73474 46.6084C3.97332 41.8254 5.61207 35.7095 10.395 32.9481L55.4283 6.94812C60.2112 4.1867 66.3271 5.82545 69.0886 10.6084L100.089 64.3019L46.395 95.3019C41.6121 98.0634 35.4962 96.4246 32.7347 91.6417L6.73474 46.6084Z" fill="#D00027"/>
<path d="M7.07107 58.1962C3.16583 54.2909 3.16583 47.9593 7.07107 44.0541L43.8406 7.2845C47.7459 3.37926 54.0775 3.37926 57.9828 7.2845L101.823 51.1251L57.9828 94.9657C54.0775 98.871 47.7459 98.871 43.8406 94.9657L7.07107 58.1962Z" fill="#FFC82D"/>
<path d="M43.06 59.0931H48.856V44.4051H43.024V41.3451C44.104 41.2251 45.424 40.8891 46.984 40.3371C48.568 39.7851 49.984 39.1491 51.232 38.4291H53.788V59.0931H59.08V63.1251H43.06V59.0931Z" fill="white"/>
</svg>
