<svg width="102" height="103" viewBox="0 0 102 103" fill="none" xmlns="http://www.w3.org/2000/svg">
<path d="M6.73474 46.6084C3.97332 41.8254 5.61207 35.7095 10.395 32.9481L55.4283 6.94812C60.2112 4.1867 66.3271 5.82545 69.0886 10.6084L100.089 64.3019L46.395 95.3019C41.6121 98.0634 35.4962 96.4246 32.7347 91.6417L6.73474 46.6084Z" fill="#D00027"/>
<path d="M7.07107 58.1962C3.16583 54.2909 3.16583 47.9593 7.07107 44.0541L43.8406 7.2845C47.7459 3.37926 54.0775 3.37926 57.9828 7.2845L101.823 51.1251L57.9828 94.9657C54.0775 98.871 47.7459 98.871 43.8406 94.9657L7.07107 58.1962Z" fill="#FFC82D"/>
<path d="M50.08 63.5571C47.248 63.5571 45.064 62.8971 43.528 61.5771C41.992 60.2331 41.224 58.4211 41.224 56.1411V55.4931H46.228V56.2491C46.228 57.3051 46.552 58.1211 47.2 58.6971C47.848 59.2491 48.784 59.5251 50.008 59.5251C51.112 59.5251 51.988 59.2491 52.636 58.6971C53.284 58.1211 53.608 57.2691 53.608 56.1411C53.608 54.8211 53.248 53.8971 52.528 53.3691C51.808 52.8411 50.848 52.5771 49.648 52.5771H47.812V48.5451H49.756C50.74 48.5451 51.544 48.2571 52.168 47.6811C52.792 47.0811 53.104 46.2171 53.104 45.0891C53.104 44.0571 52.828 43.2891 52.276 42.7851C51.748 42.2811 50.992 42.0291 50.008 42.0291C48.976 42.0291 48.172 42.2931 47.596 42.8211C47.02 43.3251 46.732 44.0811 46.732 45.0891V45.7731H41.728V44.7651C41.728 43.4211 42.076 42.2451 42.772 41.2371C43.468 40.2051 44.428 39.4131 45.652 38.8611C46.9 38.2851 48.316 37.9971 49.9 37.9971C52.42 37.9971 54.424 38.5851 55.912 39.7611C57.424 40.9371 58.18 42.6051 58.18 44.7651C58.18 46.1331 57.832 47.2611 57.136 48.1491C56.464 49.0131 55.516 49.7331 54.292 50.3091V50.4531C55.636 50.8611 56.704 51.5811 57.496 52.6131C58.288 53.6451 58.684 54.9411 58.684 56.5011C58.684 57.9411 58.312 59.2011 57.568 60.2811C56.848 61.3371 55.84 62.1531 54.544 62.7291C53.248 63.2811 51.76 63.5571 50.08 63.5571Z" fill="white"/>
</svg>
