<svg width="40" height="41" viewBox="0 0 40 41" fill="none" xmlns="http://www.w3.org/2000/svg">
<circle cx="20" cy="20.125" r="20" fill="#C13584"/>
<path d="M20 10.2872C23.2041 10.2872 23.5837 10.2994 24.849 10.3571C26.019 10.4105 26.6544 10.606 27.0773 10.7703C27.6374 10.988 28.0371 11.248 28.457 11.6679C28.877 12.0879 29.137 12.4876 29.3547 13.0477C29.519 13.4706 29.7145 14.106 29.7679 15.2759C29.8256 16.5413 29.8378 16.9208 29.8378 20.1249C29.8378 23.3291 29.8256 23.7086 29.7679 24.974C29.7145 26.144 29.519 26.7793 29.3547 27.2022C29.137 27.7623 28.877 28.1621 28.4571 28.582C28.0371 29.0019 27.6374 29.2619 27.0773 29.4796C26.6544 29.644 26.019 29.8394 24.849 29.8928C23.5839 29.9505 23.2044 29.9628 20 29.9628C16.7956 29.9628 16.4162 29.9505 15.151 29.8928C13.981 29.8394 13.3456 29.644 12.9227 29.4796C12.3626 29.2619 11.9629 29.0019 11.543 28.582C11.1231 28.1621 10.863 27.7623 10.6453 27.2022C10.481 26.7793 10.2855 26.144 10.2321 24.974C10.1744 23.7086 10.1622 23.3291 10.1622 20.1249C10.1622 16.9208 10.1744 16.5413 10.2321 15.2759C10.2855 14.106 10.481 13.4706 10.6453 13.0477C10.863 12.4876 11.123 12.0879 11.543 11.668C11.9629 11.248 12.3626 10.988 12.9227 10.7703C13.3456 10.606 13.981 10.4105 15.151 10.3571C16.4163 10.2994 16.7959 10.2872 20 10.2872ZM20 8.125C16.741 8.125 16.3323 8.13881 15.0524 8.19721C13.7752 8.25547 12.9028 8.45834 12.1395 8.75496C11.3504 9.06163 10.6812 9.47194 10.0141 10.1391C9.34695 10.8062 8.93663 11.4754 8.63001 12.2645C8.33334 13.0278 8.13047 13.9001 8.07221 15.1774C8.01381 16.4573 8 16.866 8 20.1249C8 23.384 8.01381 23.7926 8.07221 25.0725C8.13047 26.3498 8.33334 27.2221 8.63001 27.9854C8.93663 28.7745 9.34695 29.4437 10.0141 30.1109C10.6812 30.778 11.3504 31.1883 12.1395 31.4949C12.9028 31.7916 13.7752 31.9944 15.0524 32.0527C16.3323 32.1111 16.741 32.1249 20 32.1249C23.259 32.1249 23.6677 32.1111 24.9476 32.0527C26.2248 31.9944 27.0972 31.7916 27.8605 31.4949C28.6496 31.1883 29.3188 30.778 29.9859 30.1109C30.653 29.4437 31.0634 28.7745 31.37 27.9854C31.6667 27.2221 31.8695 26.3498 31.9278 25.0725C31.9862 23.7926 32 23.384 32 20.1249C32 16.866 31.9862 16.4573 31.9278 15.1774C31.8695 13.9001 31.6667 13.0278 31.37 12.2645C31.0634 11.4754 30.653 10.8062 29.9859 10.1391C29.3188 9.47194 28.6496 9.06163 27.8605 8.75496C27.0972 8.45834 26.2248 8.25547 24.9476 8.19721C23.6677 8.13881 23.259 8.125 20 8.125Z" fill="white"/>
<path d="M20.0056 13.9683C16.6023 13.9683 13.8434 16.7271 13.8434 20.1304C13.8434 23.5337 16.6023 26.2925 20.0056 26.2925C23.4089 26.2925 26.1677 23.5337 26.1677 20.1304C26.1677 16.7271 23.4089 13.9683 20.0056 13.9683ZM20.0056 24.1304C17.7964 24.1304 16.0056 22.3395 16.0056 20.1304C16.0056 17.9213 17.7964 16.1304 20.0056 16.1304C22.2147 16.1304 24.0056 17.9213 24.0056 20.1304C24.0056 22.3395 22.2147 24.1304 20.0056 24.1304Z" fill="white"/>
<path d="M27.8508 13.7213C27.8508 14.5165 27.2061 15.1613 26.4108 15.1613C25.6155 15.1613 24.9708 14.5165 24.9708 13.7213C24.9708 12.926 25.6155 12.2812 26.4108 12.2812C27.2061 12.2812 27.8508 12.926 27.8508 13.7213Z" fill="white"/>
</svg>
