<svg width="255" height="40" viewBox="0 0 255 40" fill="none" xmlns="http://www.w3.org/2000/svg">
<path d="M233.72 19.6866L217.333 0H222.889L236.24 16.5969L249.777 0H254.889L238.669 19.6164L254.889 39.7778H250.444L236.174 22.6345L222 39.7778H217.333L233.72 19.6866Z" fill="#262626"/>
<rect width="22.2222" height="4" fill="#262626"/>
<rect y="17.7778" width="22.2222" height="4" fill="#262626"/>
<rect y="36" width="22.2222" height="4" fill="#262626"/>
<rect x="190.224" width="22.6667" height="4" fill="#262626"/>
<rect x="190.223" y="17.7778" width="22.6667" height="4" fill="#262626"/>
<rect x="190.223" y="36" width="22.6667" height="4" fill="#262626"/>
<rect x="152" width="33.7778" height="4" fill="#262626"/>
<rect x="171.556" y="4" width="36" height="4" transform="rotate(90 171.556 4)" fill="#262626"/>
<rect x="83.1123" width="22.2222" height="4" fill="#262626"/>
<rect x="83.1113" y="17.7778" width="22.2222" height="4" fill="#262626"/>
<rect x="83.1113" y="36" width="22.2222" height="4" fill="#262626"/>
<path d="M115.555 0H109.777L143.333 39.7778H147.555V0H143.333V34L115.555 0Z" fill="#262626"/>
<path d="M52.666 39.7778L26.666 0.444427H31.9993L52.666 32L73.5549 0.444427H78.666L52.666 39.7778Z" fill="#262626"/>
</svg>
