<svg width="24" height="25" viewBox="0 0 24 25" fill="none" xmlns="http://www.w3.org/2000/svg">
<path d="M18.997 20.125C10.466 20.137 3.99101 13.585 4.00001 5.128C4.00001 4.575 4.44801 4.125 5.00001 4.125H7.64001C8.13501 4.125 8.55601 4.489 8.62901 4.979C8.80311 6.15405 9.14493 7.29805 9.64401 8.376L9.74701 8.598C9.8162 8.74739 9.83108 8.91624 9.78909 9.07543C9.7471 9.23462 9.65088 9.37417 9.51701 9.47C8.69901 10.054 8.38701 11.229 9.02401 12.145C9.82301 13.295 10.83 14.303 11.98 15.102C12.897 15.738 14.072 15.426 14.655 14.609C14.7507 14.4747 14.8904 14.3781 15.0498 14.336C15.2092 14.2938 15.3784 14.3086 15.528 14.378L15.749 14.48C16.827 14.98 17.971 15.322 19.146 15.496C19.636 15.569 20 15.99 20 16.486V19.125C20 19.2564 19.9741 19.3865 19.9238 19.5079C19.8735 19.6293 19.7997 19.7396 19.7068 19.8325C19.6138 19.9253 19.5034 19.999 19.382 20.0492C19.2606 20.0994 19.1304 20.1251 18.999 20.125H18.997Z" fill="white"/>
</svg>
