<svg width="20" height="16" viewBox="0 0 20 16" fill="none" xmlns="http://www.w3.org/2000/svg">
<g clip-path="url(#clip0_29_376)">
<path d="M10 7.61768L0.00976562 2.56402V1.37378C0.00976562 1.02256 0.133343 0.726626 0.380497 0.485976C0.627652 0.245325 0.920335 0.125 1.25855 0.125H18.7415C19.0797 0.125 19.3724 0.245325 19.6195 0.485976C19.8667 0.726626 19.9903 1.02256 19.9903 1.37378V2.56402L10 7.61768ZM9.37562 8.86646H10.6244L19.9903 4.00793V13.8616C19.9903 14.1998 19.8667 14.4925 19.6195 14.7396C19.3724 14.9868 19.0797 15.1104 18.7415 15.1104H1.25855C0.920335 15.1104 0.627652 14.9868 0.380497 14.7396C0.133343 14.4925 0.00976562 14.1998 0.00976562 13.8616V4.00793L9.37562 8.86646Z" fill="white"/>
</g>
<defs>
<clipPath id="clip0_29_376">
<rect width="20" height="14.9854" fill="white" transform="translate(0 0.125)"/>
</clipPath>
</defs>
</svg>
