<svg width="102" height="103" viewBox="0 0 102 103" fill="none" xmlns="http://www.w3.org/2000/svg">
<path d="M6.73474 46.6084C3.97332 41.8254 5.61207 35.7095 10.395 32.9481L55.4283 6.94812C60.2112 4.1867 66.3271 5.82545 69.0886 10.6084L100.089 64.3019L46.395 95.3019C41.6121 98.0634 35.4962 96.4246 32.7347 91.6417L6.73474 46.6084Z" fill="#D00027"/>
<path d="M7.07107 58.1962C3.16583 54.2909 3.16583 47.9593 7.07107 44.0541L43.8406 7.2845C47.7459 3.37926 54.0775 3.37926 57.9828 7.2845L101.823 51.1251L57.9828 94.9657C54.0775 98.871 47.7459 98.871 43.8406 94.9657L7.07107 58.1962Z" fill="#FFC82D"/>
<path d="M41.548 61.8291C41.548 60.4611 41.848 59.2371 42.448 58.1571C43.048 57.0531 43.78 56.0931 44.644 55.2771C45.532 54.4611 46.684 53.5371 48.1 52.5051C49.324 51.5691 50.284 50.7891 50.98 50.1651C51.7 49.5411 52.3 48.8571 52.78 48.1131C53.38 47.1771 53.68 46.1211 53.68 44.9451C53.68 44.1771 53.392 43.5051 52.816 42.9291C52.264 42.3291 51.46 42.0291 50.404 42.0291C48.028 42.0291 46.84 43.1691 46.84 45.4491V46.9251H41.944C41.848 46.4931 41.8 46.0131 41.8 45.4851C41.8 42.9891 42.628 41.1171 44.284 39.8691C45.964 38.6211 48.076 37.9971 50.62 37.9971C52.852 37.9971 54.568 38.4291 55.768 39.2931C56.968 40.1571 57.748 41.1291 58.108 42.2091C58.492 43.2891 58.684 44.2971 58.684 45.2331C58.684 46.8891 58.312 48.3651 57.568 49.6611C56.824 50.9331 55.936 52.0131 54.904 52.9011C53.896 53.7651 52.636 54.7131 51.124 55.7451C49.972 56.5371 49.108 57.1851 48.532 57.6891C48.124 58.0491 47.824 58.3971 47.632 58.7331H58.828V63.1251H41.548V61.8291Z" fill="white"/>
</svg>
