<svg width="40" height="41" viewBox="0 0 40 41" fill="none" xmlns="http://www.w3.org/2000/svg">
<circle cx="20" cy="20.125" r="20" fill="#0077B5"/>
<path fill-rule="evenodd" clip-rule="evenodd" d="M14.7747 10.4089C14.7747 11.654 13.8267 12.6616 12.3442 12.6616C10.9194 12.6616 9.97132 11.654 10.0007 10.4089C9.97132 9.10328 10.9193 8.125 12.3726 8.125C13.8267 8.125 14.7463 9.10328 14.7747 10.4089ZM10.1199 28.9441V14.4412H14.6271V28.9431H10.1199V28.9441Z" fill="white"/>
<path fill-rule="evenodd" clip-rule="evenodd" d="M18.2398 19.0696C18.2398 17.2607 18.1802 15.7185 18.1206 14.4432H22.0356L22.2437 16.43H22.3326C22.9258 15.5104 24.4084 14.1177 26.8106 14.1177C29.7757 14.1177 32 16.0752 32 20.344V28.946H27.4927V20.9088C27.4927 19.0394 26.8408 17.7649 25.2097 17.7649C23.9637 17.7649 23.2229 18.6249 22.9268 19.4547C22.8076 19.7518 22.7489 20.1662 22.7489 20.5824V28.946H18.2416V19.0696H18.2398Z" fill="white"/>
</svg>
