<svg width="20" height="21" viewBox="0 0 20 21" fill="none" xmlns="http://www.w3.org/2000/svg">
<g clip-path="url(#clip0_29_378)">
<path d="M10 0.125C5.8363 0.125 2.46094 3.50035 2.46094 7.66407C2.46094 9.05652 2.73349 10.4947 3.51562 11.5313L10 20.125L16.4844 11.5313C17.1948 10.5898 17.5391 8.92532 17.5391 7.66407C17.5391 3.50035 14.1637 0.125 10 0.125ZM10 4.49145C11.7519 4.49145 13.1726 5.91213 13.1726 7.66405C13.1726 9.416 11.7519 10.8367 10 10.8367C8.24807 10.8367 6.8274 9.416 6.8274 7.66407C6.8274 5.91213 8.24807 4.49145 10 4.49145Z" fill="white"/>
</g>
<defs>
<clipPath id="clip0_29_378">
<rect width="20" height="20" fill="white" transform="translate(0 0.125)"/>
</clipPath>
</defs>
</svg>
