<svg width="192" height="30" viewBox="0 0 192 30" fill="none" xmlns="http://www.w3.org/2000/svg">
<path d="M175.29 14.765L163 0H167.167L177.18 12.4477L187.333 0H191.167L179.002 14.7123L191.167 29.8333H187.833L177.131 16.9759L166.5 29.8333H163L175.29 14.765Z" fill="white"/>
<rect width="16.6667" height="3" fill="white"/>
<rect y="13.3333" width="16.6667" height="3" fill="white"/>
<rect y="27" width="16.6667" height="3" fill="white"/>
<rect x="142.667" width="17" height="3" fill="white"/>
<rect x="142.667" y="13.3333" width="17" height="3" fill="white"/>
<rect x="142.667" y="27" width="17" height="3" fill="white"/>
<rect x="114" width="25.3333" height="3" fill="white"/>
<rect x="128.667" y="3" width="27" height="3" transform="rotate(90 128.667 3)" fill="white"/>
<rect x="62.3333" width="16.6667" height="3" fill="white"/>
<rect x="62.3334" y="13.3333" width="16.6667" height="3" fill="white"/>
<rect x="62.3334" y="27" width="16.6667" height="3" fill="white"/>
<path d="M86.6666 0H82.3333L107.5 29.8333H110.667V0H107.5V25.5L86.6666 0Z" fill="white"/>
<path d="M39.5 29.8334L20 0.333374H24L39.5 24L55.1667 0.333374H59L39.5 29.8334Z" fill="white"/>
</svg>
