<svg width="40" height="41" viewBox="0 0 40 41" fill="none" xmlns="http://www.w3.org/2000/svg">
<circle cx="20" cy="20.125" r="20" fill="#1DA1F2"/>
<path fill-rule="evenodd" clip-rule="evenodd" d="M32 12.4336C31.1177 12.8256 30.1681 13.0896 29.1722 13.2088C30.1889 12.5992 30.9697 11.6345 31.3368 10.485C30.3865 11.0497 29.3314 11.4585 28.2107 11.6801C27.3123 10.7234 26.0316 10.125 24.6165 10.125C21.8975 10.125 19.6928 12.3297 19.6928 15.0487C19.6928 15.4342 19.7368 15.8102 19.8208 16.171C15.7283 15.9662 12.1005 14.0055 9.67189 11.0265C9.24792 11.7537 9.00553 12.5992 9.00553 13.5016C9.00553 15.2095 9.87347 16.7166 11.1958 17.5997C10.3878 17.5741 9.62949 17.3525 8.96473 16.9837V17.0453C8.96473 19.4316 10.663 21.421 12.9141 21.8746C12.5013 21.9866 12.0661 22.0474 11.6174 22.0474C11.2998 22.0474 10.991 22.0162 10.6902 21.9586C11.3166 23.9145 13.1357 25.3384 15.2899 25.3784C13.6052 26.6983 11.4822 27.4862 9.17512 27.4862C8.77675 27.4862 8.38477 27.463 8 27.4166C10.1791 28.8134 12.7669 29.6293 15.5475 29.6293C24.6037 29.6293 29.5562 22.1266 29.5562 15.6206C29.5562 15.407 29.5522 15.1943 29.5418 14.9839C30.5049 14.2879 31.34 13.4208 32 12.4336Z" fill="white"/>
</svg>
