<svg width="40" height="41" viewBox="0 0 40 41" fill="none" xmlns="http://www.w3.org/2000/svg">
<circle cx="20" cy="20.125" r="20" fill="#FF0000"/>
<path fill-rule="evenodd" clip-rule="evenodd" d="M31.3005 12.5031C31.6996 12.9022 31.9872 13.3989 32.1346 13.9437C32.9835 17.3607 32.7873 22.7574 32.1511 26.3063C32.0037 26.8511 31.7161 27.3478 31.317 27.7469C30.9179 28.146 30.4212 28.4336 29.8764 28.581C27.8819 29.125 19.8544 29.125 19.8544 29.125C19.8544 29.125 11.8269 29.125 9.8324 28.581C9.28759 28.4336 8.79089 28.146 8.39179 27.7469C7.99269 27.3478 7.70511 26.8511 7.55768 26.3063C6.70383 22.9041 6.9379 17.5041 7.5412 13.9602C7.68862 13.4153 7.97621 12.9186 8.37531 12.5195C8.77441 12.1204 9.2711 11.8329 9.81592 11.6854C11.8104 11.1415 19.8379 11.125 19.8379 11.125C19.8379 11.125 27.8654 11.125 29.8599 11.669C30.4047 11.8164 30.9014 12.104 31.3005 12.5031ZM23.9423 20.125L17.283 23.9821V16.2678L23.9423 20.125Z" fill="white"/>
</svg>
